<svg width="266" height="57" viewBox="0 0 266 57" fill="none" xmlns="http://www.w3.org/2000/svg">
<path d="M26.1365 56.2731C21.6876 56.2731 17.3124 55.1375 13.4251 52.9738C9.53784 50.8101 6.26721 47.6899 3.92293 43.9088C1.57866 40.1277 0.238356 35.8108 0.0289385 31.3668C-0.180479 26.9229 0.747926 22.4991 2.72623 18.5142C4.70454 14.5294 7.66727 11.1155 11.3338 8.59588C15.0004 6.07623 19.2495 4.5342 23.6786 4.11583C28.1078 3.69745 32.5704 4.41659 36.644 6.20513C40.7175 7.99367 44.267 10.7924 46.9565 14.3363L39.0129 20.3647C37.3496 18.1729 35.1543 16.4419 32.635 15.3358C30.1157 14.2296 27.3557 13.7849 24.6164 14.0436C21.8771 14.3024 19.2492 15.2561 16.9816 16.8144C14.7139 18.3727 12.8816 20.4841 11.6581 22.9485C10.4345 25.413 9.86036 28.149 9.98988 30.8974C10.1194 33.6459 10.9483 36.3157 12.3982 38.6542C13.848 40.9927 15.8708 42.9224 18.275 44.2606C20.6791 45.5987 23.385 46.3011 26.1365 46.3011L26.1365 56.2731Z" fill="#0C0C0C"/>
<path d="M52.8354 56.1988H28.877V46.1798H42.8164V31.8047H52.8354V56.1988Z" fill="#003DAF"/>
<path d="M82.9146 16.2457C85.9042 16.2457 88.5616 16.91 90.8868 18.2387C93.2121 19.52 95.0153 21.4418 96.2965 24.0043C97.6252 26.5194 98.2896 29.5564 98.2896 33.1154V56.249H88.3243V34.4678C88.3243 31.3359 87.5414 28.9395 85.9754 27.2786C84.4094 25.5703 82.274 24.7161 79.5692 24.7161C76.8169 24.7161 74.634 25.5703 73.0206 27.2786C71.4546 28.9395 70.6716 31.3359 70.6716 34.4678V56.249H60.7064V3.57556H70.6716V21.7265C71.9529 20.0182 73.6612 18.6895 75.7966 17.7404C77.932 16.7439 80.3047 16.2457 82.9146 16.2457ZM105.204 36.3897C105.204 32.4036 105.987 28.8683 107.552 25.7838C109.166 22.6993 111.325 20.3267 114.03 18.6658C116.782 17.0049 119.843 16.1745 123.212 16.1745C126.154 16.1745 128.717 16.7676 130.9 17.954C133.13 19.1403 134.909 20.6351 136.238 22.4384V16.8151H146.275V56.249H136.238V50.4834C134.957 52.3341 133.177 53.8763 130.9 55.1101C128.669 56.2965 126.083 56.8896 123.141 56.8896C119.819 56.8896 116.782 56.0355 114.03 54.3272C111.325 52.6188 109.166 50.2224 107.552 47.1379C105.987 44.006 105.204 40.4233 105.204 36.3897ZM136.238 36.5321C136.238 34.1119 135.764 32.0477 134.815 30.3394C133.866 28.5836 132.584 27.2549 130.971 26.3533C129.357 25.4042 127.625 24.9297 125.775 24.9297C123.924 24.9297 122.216 25.3805 120.65 26.2821C119.084 27.1837 117.802 28.5124 116.806 30.2682C115.857 31.9765 115.382 34.017 115.382 36.3897C115.382 38.7624 115.857 40.8503 116.806 42.6536C117.802 44.4094 119.084 45.7618 120.65 46.7109C122.263 47.6599 123.971 48.1345 125.775 48.1345C127.625 48.1345 129.357 47.6837 130.971 46.782C132.584 45.833 133.866 44.5043 134.815 42.7959C135.764 41.0402 136.238 38.9522 136.238 36.5321ZM167.61 25.0008V44.0772C167.61 45.4059 167.918 46.3787 168.535 46.9956C169.2 47.565 170.291 47.8497 171.809 47.8497H176.436V56.249H170.172C161.773 56.249 157.573 52.168 157.573 44.006V25.0008H152.875V16.8151H157.573V7.06339H167.61V16.8151H176.436V25.0008H167.61ZM193.569 22.9366C194.85 20.8487 196.511 19.2115 198.552 18.0252C200.64 16.8388 203.012 16.2457 205.67 16.2457V26.7092H203.036C199.904 26.7092 197.531 27.4447 195.918 28.9158C194.352 30.3868 193.569 32.9493 193.569 36.6032V56.249H183.604V16.8151H193.569V22.9366ZM217.435 12.1172C215.68 12.1172 214.209 11.5715 213.022 10.4801C211.883 9.34116 211.314 7.94128 211.314 6.28041C211.314 4.61953 211.883 3.24338 213.022 2.15195C214.209 1.01306 215.68 0.443619 217.435 0.443619C219.191 0.443619 220.639 1.01306 221.777 2.15195C222.964 3.24338 223.557 4.61953 223.557 6.28041C223.557 7.94128 222.964 9.34116 221.777 10.4801C220.639 11.5715 219.191 12.1172 217.435 12.1172ZM222.347 16.8151V56.249H212.382V16.8151H222.347ZM253.974 56.249L245.859 44.006L238.67 56.249H227.993L240.877 36.4609L227.851 16.8151H239.097L247.141 28.9869L254.401 16.8151H265.078L252.123 36.4609L265.22 56.249H253.974Z" fill="#0C0C0C"/>
</svg>
